<?xml version="1.0" standalone="no"?>
<!DOCTYPE svg PUBLIC "-//W3C//DTD SVG 20010904//EN"
 "http://www.w3.org/TR/2001/REC-SVG-20010904/DTD/svg10.dtd">
<svg version="1.0" xmlns="http://www.w3.org/2000/svg"
 width="640.000000pt" height="640.000000pt" viewBox="0 0 640.000000 640.000000"
 preserveAspectRatio="xMidYMid meet">
<metadata>
Created by potrace 1.14, written by Peter Selinger 2001-2017
</metadata>
<g transform="translate(0.000000,640.000000) scale(0.100000,-0.100000)"
fill="#000000" stroke="none">
<path d="M1530 6391 c0 -6 5 -13 10 -16 6 -4 8 -10 5 -15 -9 -15 45 -17 66 -2
21 15 21 16 4 29 -21 15 -85 18 -85 4z"/>
<path d="M3090 6343 c-18 -77 -22 -85 -66 -108 -34 -18 -40 -27 -55 -85 -105
-407 -320 -1183 -335 -1211 -19 -38 -18 -45 12 -84 15 -21 47 -43 81 -57 89
-36 91 -51 38 -197 -24 -67 -63 -163 -86 -214 -38 -82 -43 -100 -43 -168 -1
-52 -6 -83 -16 -96 -8 -10 1 -2 20 19 42 46 76 50 110 13 27 -28 21 -32 -14
-10 -22 15 -56 12 -56 -5 0 -5 -9 -11 -19 -15 -13 -4 -17 -12 -14 -25 3 -11 8
-20 12 -20 4 0 7 -9 7 -20 0 -17 -7 -20 -44 -20 -36 0 -42 -3 -33 -13 6 -8 7
-18 3 -22 -4 -5 -1 -5 6 -1 6 4 12 3 12 -2 0 -5 8 -12 18 -16 9 -3 24 -9 32
-12 13 -5 13 -4 0 6 -12 9 -10 10 9 5 23 -7 24 -6 18 31 -3 22 -3 33 0 27 15
-40 71 14 60 57 -3 12 -3 19 1 16 9 -9 33 -76 39 -109 6 -29 29 -32 27 -3 -2
21 5 20 30 -3 22 -20 167 -103 172 -98 4 4 54 178 54 188 0 5 25 62 56 126 31
65 69 151 85 191 41 104 57 132 74 132 9 0 35 -42 64 -102 89 -183 89 -186 89
-389 0 -99 1 -182 4 -184 2 -2 30 3 62 11 32 8 71 12 87 9 16 -4 92 6 181 24
84 17 215 37 290 45 137 15 138 15 205 -8 88 -30 271 -116 400 -187 144 -80
133 -79 134 -6 1 74 6 127 12 134 3 2 1 18 -3 34 -5 16 -6 29 -2 29 4 0 5 54
2 119 -8 192 -2 311 17 318 20 8 60 -37 43 -47 -7 -5 -4 -9 9 -13 18 -4 19 -2
11 13 -7 13 -7 21 1 25 6 4 8 13 5 20 -2 7 0 17 5 22 5 5 12 37 15 71 8 75
-10 112 -54 112 -61 0 -66 14 -70 172 -1 78 -5 153 -7 165 -3 14 -24 33 -53
49 -26 15 -90 52 -142 83 -52 32 -103 60 -112 64 -18 6 -23 29 -19 76 1 14 35
57 86 110 51 52 85 94 85 107 0 11 -11 31 -24 44 -26 24 -66 99 -66 124 0 8
13 43 29 78 53 115 61 140 59 184 -1 32 4 50 19 67 11 12 26 32 32 44 14 27
15 123 1 123 -5 0 -10 15 -10 33 -1 41 -36 126 -83 198 -59 92 -33 89 -699 89
l-568 0 16 -40 c15 -38 15 -42 0 -59 -22 -25 -93 -42 -139 -34 -40 6 -57 21
-38 33 7 4 18 28 26 53 l14 47 -48 0 -48 0 -13 -57z m1375 -123 c3 -5 1 -10
-4 -10 -6 0 -11 5 -11 10 0 6 2 10 4 10 3 0 8 -4 11 -10z m-275 -67 c0 -13 -3
-13 -15 -3 -8 7 -12 16 -9 21 8 13 24 1 24 -18z m-1490 -2083 c0 -5 -2 -10 -4
-10 -3 0 -8 5 -11 10 -3 6 -1 10 4 10 6 0 11 -4 11 -10z m35 0 c3 -5 1 -10 -4
-10 -6 0 -11 5 -11 10 0 6 2 10 4 10 3 0 8 -4 11 -10z"/>
<path d="M926 5831 c-5 -8 -2 -20 8 -29 17 -17 19 -9 7 22 -6 15 -10 16 -15 7z"/>
<path d="M930 5770 c0 -5 5 -10 11 -10 5 0 7 5 4 10 -3 6 -8 10 -11 10 -2 0
-4 -4 -4 -10z"/>
<path d="M930 5564 c0 -8 5 -12 10 -9 6 4 8 11 5 16 -9 14 -15 11 -15 -7z"/>
<path d="M5032 5378 c-22 -27 -42 -87 -35 -105 4 -10 15 -26 24 -36 16 -17 18
-17 55 2 22 12 63 25 92 31 95 18 103 62 11 59 -57 -2 -87 8 -113 38 -19 21
-24 23 -34 11z"/>
<path d="M906 5155 c-31 -40 -32 -61 -6 -95 11 -14 20 -30 20 -36 0 -6 7 -18
17 -25 13 -11 17 -12 21 -1 2 7 15 24 28 37 27 27 25 42 -13 93 -13 17 -22 36
-19 41 3 5 -1 11 -8 14 -9 4 -25 -8 -40 -28z"/>
<path d="M920 4910 c0 -5 5 -10 10 -10 6 0 10 5 10 10 0 6 -4 10 -10 10 -5 0
-10 -4 -10 -10z"/>
<path d="M920 4879 c0 -5 4 -9 9 -9 5 0 6 -10 3 -22 -5 -22 -5 -22 11 -6 23
22 21 43 -3 45 -11 1 -20 -2 -20 -8z"/>
<path d="M936 4495 c-9 -26 -7 -32 5 -12 6 10 9 21 6 23 -2 3 -7 -2 -11 -11z"/>
<path d="M6345 4383 c-27 -14 -63 -37 -80 -52 -16 -16 -45 -38 -63 -50 -63
-44 -63 -41 -55 -443 l6 -363 -24 -28 c-23 -27 -29 -29 -158 -37 -73 -5 -146
-7 -161 -3 -24 4 -31 1 -44 -26 l-16 -30 -23 22 -22 22 36 8 c35 7 36 9 53 85
23 107 34 172 29 172 -3 0 -21 -19 -41 -42 -20 -24 -75 -82 -122 -130 -68 -70
-92 -88 -115 -88 -15 0 -44 -12 -64 -27 -35 -28 -39 -28 -199 -31 -153 -3
-165 -2 -200 19 l-37 22 36 -39 c31 -33 36 -44 32 -72 -4 -25 0 -39 18 -58 28
-29 53 -25 90 17 l26 29 27 -50 c44 -81 73 -110 109 -110 37 0 47 6 68 37 l16
23 28 -30 28 -29 -58 -17 c-45 -13 -84 -15 -169 -12 -61 3 -119 9 -129 13 -9
4 -26 27 -36 51 -19 41 -42 56 -56 34 -3 -5 -1 -17 4 -27 6 -10 17 -35 25 -55
12 -31 12 -37 0 -42 -23 -9 -17 -39 47 -214 34 -92 63 -173 65 -180 2 -8 13
-16 24 -19 10 -3 26 -16 36 -30 15 -23 15 -27 0 -41 -12 -12 -19 -13 -27 -5
-7 7 -24 10 -38 7 -47 -10 -78 11 -109 73 -26 50 -80 192 -115 302 -17 52 -42
57 -149 33 -95 -23 -252 -42 -333 -42 l-46 0 21 -22 c11 -12 25 -38 30 -57 21
-75 16 -85 -92 -208 -91 -102 -112 -120 -183 -156 -77 -40 -83 -42 -177 -42
-54 0 -98 4 -98 8 0 29 23 47 59 47 35 0 45 7 97 63 32 34 77 92 101 130 l44
67 -24 53 c-27 60 -89 134 -154 186 l-45 36 -106 -8 c-59 -5 -195 -6 -304 -3
l-196 5 -4 -90 c-3 -85 -5 -92 -31 -115 -15 -13 -37 -24 -49 -24 -19 0 -20 4
-14 53 20 160 20 154 0 134 -26 -24 -25 -156 1 -247 28 -97 22 -179 -18 -262
-18 -37 -40 -70 -50 -73 -9 -4 -42 -1 -73 5 -43 9 -54 15 -52 28 2 9 12 16 21
16 21 -2 81 49 71 59 -14 14 -42 7 -40 -10 1 -17 -40 -18 -703 -21 -603 -2
-709 -5 -740 -18 l-36 -15 27 -24 c33 -28 26 -31 -87 -34 -44 -1 -84 -6 -89
-11 -14 -14 430 -13 457 1 21 12 196 16 506 12 104 -2 122 -5 113 -16 -10 -12
1 -15 65 -21 42 -3 123 -6 180 -6 68 0 103 -4 103 -11 0 -20 -32 -124 -41
-133 -5 -6 -9 -18 -9 -28 0 -17 -15 -18 -212 -20 l-213 -3 200 -2 c110 -2 205
-5 212 -8 9 -3 6 -24 -11 -77 -13 -40 -38 -125 -56 -188 -67 -238 -92 -306
-110 -295 -6 4 -10 3 -10 -2 -1 -26 -33 -46 -79 -50 -27 -2 -69 -7 -94 -12
-30 -5 -49 -5 -56 2 -8 8 -11 7 -11 -2 0 -10 -9 -12 -29 -8 -16 3 -31 3 -35 0
-3 -4 -37 -8 -74 -9 -37 -1 -98 -5 -137 -9 -38 -3 -112 -7 -162 -8 -51 -1 -93
-4 -93 -7 0 -3 -66 -6 -147 -8 -80 -2 -150 -5 -155 -8 -4 -3 -8 0 -8 6 0 6 -5
8 -12 4 -23 -14 -565 -20 -818 -9 -80 3 -185 8 -235 10 -49 2 -90 5 -90 6 0 3
-49 8 -95 10 l-45 2 105 49 c117 55 134 62 240 106 41 17 145 60 230 95 85 36
165 68 178 71 29 9 28 26 -1 26 -18 0 -246 -89 -332 -130 -39 -19 -497 -200
-504 -200 -4 0 9 10 28 22 l34 22 -29 8 c-28 8 -62 15 -111 23 -12 2 -26 6
-32 9 -6 4 -27 0 -47 -9 -40 -16 -94 -20 -94 -6 0 7 22 21 40 25 3 1 14 7 25
14 18 12 15 13 -20 8 -24 -3 -35 -2 -26 3 7 5 10 14 6 20 -5 9 -11 9 -23 -1
-12 -10 -14 -10 -8 0 4 7 1 12 -8 12 -14 0 -16 -85 -16 -830 l0 -830 3200 0
3200 0 -2 1112 -3 1112 -110 21 c-284 55 -280 55 -577 55 -267 0 -305 2 -574
36 -303 37 -528 71 -483 73 15 1 29 8 33 16 5 13 -12 15 -114 15 -81 0 -120 4
-120 11 0 19 32 79 40 74 4 -2 160 -9 346 -14 186 -6 416 -13 509 -16 94 -2
307 -8 474 -11 167 -3 339 -9 382 -13 46 -4 79 -3 79 2 0 5 7 4 15 -3 10 -9
15 -9 15 -1 0 15 53 14 69 -1 9 -9 12 -9 7 -1 -3 6 -2 13 4 15 7 2 9 323 8
964 l-3 962 -50 -25z m-711 -1124 c19 -11 40 -18 46 -14 23 14 8 -13 -25 -45
-33 -32 -35 -32 -35 -12 0 13 -7 38 -14 57 -8 19 -13 35 -11 35 2 0 20 -9 39
-21z m633 -318 c34 -2 53 -45 38 -87 -6 -19 -14 -36 -17 -39 -3 -4 -33 -7 -67
-9 -54 -3 -62 -1 -76 20 -8 13 -15 39 -15 59 0 30 5 37 32 48 17 7 43 12 57
11 14 -1 36 -2 48 -3z m-2297 -185 c0 -8 -70 -76 -78 -76 -6 0 6 17 27 39 32
34 51 48 51 37z m-160 -106 c-35 -24 -54 -31 -30 -11 14 11 30 21 35 21 6 0 3
-5 -5 -10z m-182 -443 l56 -42 -80 -6 -79 -5 93 -2 92 -2 293 -220 c267 -201
411 -316 347 -276 -21 12 -48 15 -140 11 -63 -3 -133 -7 -155 -10 -22 -2 -71
-6 -110 -8 -61 -4 -120 -9 -255 -23 -19 -2 -87 -6 -150 -10 -63 -3 -126 -7
-140 -9 -14 -2 -28 -4 -32 -4 -3 -1 -8 -9 -10 -18 -4 -20 -73 191 -137 417
-23 80 -52 179 -65 220 -14 41 -27 87 -30 103 l-6 27 70 0 c50 0 78 5 100 19
l31 19 126 -69 c70 -38 151 -88 181 -112z"/>
<path d="M3278 2193 c18 -2 45 -2 60 0 15 2 0 4 -33 4 -33 0 -45 -2 -27 -4z"/>
<path d="M3393 2193 c9 -2 25 -2 35 0 9 3 1 5 -18 5 -19 0 -27 -2 -17 -5z"/>
<path d="M3493 2193 c26 -2 67 -2 90 0 23 2 2 3 -48 3 -49 0 -68 -1 -42 -3z"/>
<path d="M3203 2153 c9 -2 23 -2 30 0 6 3 -1 5 -18 5 -16 0 -22 -2 -12 -5z"/>
<path d="M3312 2153 c37 -2 100 -2 140 0 40 1 10 3 -67 3 -77 0 -110 -1 -73
-3z"/>
<path d="M923 4315 c-10 -11 -20 -38 -28 -75 -1 -3 -9 -30 -18 -60 -9 -30 -19
-82 -23 -115 -4 -33 -10 -70 -15 -83 -5 -14 -3 -51 7 -100 8 -42 17 -86 19
-97 2 -11 11 -44 19 -74 12 -43 15 -114 15 -345 0 -160 1 -329 2 -376 5 -135
1 -371 -5 -396 -10 -40 26 -54 143 -55 57 0 105 2 108 4 2 3 0 23 -6 44 -6 22
-11 105 -12 184 -2 187 17 229 100 229 77 0 111 -43 68 -86 -51 -51 -61 -89
-64 -231 -1 -109 1 -132 14 -137 8 -3 19 -4 24 0 5 3 9 2 9 -3 0 -4 20 -9 45
-10 32 -1 43 2 38 10 -4 7 0 6 10 -2 9 -7 30 -14 45 -16 16 -1 35 -5 42 -10
10 -6 12 -4 6 10 -6 18 -6 18 11 3 20 -18 24 -19 250 -20 127 -1 160 2 193 17
22 10 37 22 34 27 -3 4 -9 6 -14 3 -4 -3 -10 2 -14 10 -3 8 -12 15 -21 15 -8
0 -15 5 -15 10 0 6 -6 10 -12 10 -7 1 -38 16 -68 35 -30 19 -72 44 -92 55 -65
35 -77 55 -71 115 6 59 -7 107 -42 160 -14 19 -21 35 -17 35 4 0 57 -36 117
-80 220 -161 227 -166 290 -178 39 -8 66 -19 78 -33 l17 -22 48 49 c29 31 63
55 90 63 48 16 59 25 158 136 111 125 120 136 152 208 17 37 44 88 61 112 32
48 63 187 45 204 -14 13 -193 71 -221 71 -21 0 -30 -12 -64 -86 -51 -111 -94
-175 -162 -246 -67 -69 -97 -82 -215 -98 -79 -10 -99 -9 -149 5 -32 9 -70 23
-85 31 -15 8 -36 15 -46 17 -11 2 -27 9 -36 16 -18 15 -18 15 -78 -28 -42 -30
-54 -34 -99 -32 -28 1 -69 9 -91 17 -55 19 -95 18 -126 -5 -46 -32 -110 -61
-124 -56 -16 7 -53 62 -63 95 -4 14 -25 57 -46 96 l-38 70 5 306 c5 290 5 308
-14 354 -14 33 -23 85 -28 159 -10 163 -10 165 -20 175 -5 5 -14 3 -21 -5z
m952 -1283 c-36 -5 -53 12 -35 33 12 14 15 13 37 -7 l25 -23 -27 -3z m-293
-201 c38 -34 41 -71 9 -143 -27 -60 -71 -103 -112 -112 -60 -12 -116 -7 -140
13 l-23 19 22 93 c32 132 38 143 92 150 98 13 118 10 152 -20z"/>
<path d="M4883 4298 c3 -10 1 -20 -4 -24 -6 -3 -8 -17 -4 -31 4 -19 3 -23 -7
-17 -9 5 -9 2 1 -10 14 -16 15 -16 24 0 7 12 7 19 -1 22 -8 2 -8 11 -1 29 7
19 6 29 -2 37 -9 8 -10 7 -6 -6z"/>
<path d="M152 4177 c-28 -30 -36 -74 -23 -124 24 -89 96 -121 147 -65 24 24
26 33 22 94 -3 54 -8 72 -28 93 -31 33 -88 35 -118 2z"/>
<path d="M4880 4169 c0 -8 5 -21 10 -29 8 -12 9 -10 7 7 -4 26 -17 43 -17 22z"/>
<path d="M2534 4114 c26 -20 49 -34 52 -32 4 5 -82 68 -93 68 -3 0 15 -16 41
-36z"/>
<path d="M4874 4112 c0 -10 6 -19 13 -19 8 0 9 6 2 19 -5 10 -11 18 -12 18 -2
0 -3 -8 -3 -18z"/>
<path d="M4875 4069 c-10 -14 3 -59 16 -59 8 0 8 5 -1 15 -6 8 -9 23 -5 35 7
21 1 27 -10 9z"/>
<path d="M2478 4057 c-75 -24 -168 -134 -155 -183 4 -15 5 -13 6 6 1 24 74
104 96 106 48 3 99 20 108 35 7 11 18 19 25 19 8 0 12 6 10 13 -6 16 -45 18
-90 4z"/>
<path d="M2692 3978 c-20 -38 -21 -43 -7 -57 15 -15 19 -13 46 17 34 38 36 75
4 80 -15 2 -26 -9 -43 -40z"/>
<path d="M4889 3988 c-5 -18 -6 -38 -1 -34 7 8 12 36 6 36 -2 0 -4 -1 -5 -2z"/>
<path d="M4878 3923 c7 -3 16 -2 19 1 4 3 -2 6 -13 5 -11 0 -14 -3 -6 -6z"/>
<path d="M4875 3890 c3 -5 8 -10 11 -10 2 0 4 5 4 10 0 6 -5 10 -11 10 -5 0
-7 -4 -4 -10z"/>
<path d="M2351 3877 c-6 -8 -8 -16 -5 -19 3 -4 -4 -25 -16 -47 -18 -37 -19
-42 -4 -48 10 -4 24 4 39 23 29 36 34 54 24 82 -10 25 -22 28 -38 9z"/>
<path d="M3087 3859 c7 -7 15 -10 18 -7 3 3 -2 9 -12 12 -14 6 -15 5 -6 -5z"/>
<path d="M3115 3840 c-9 -15 13 -40 34 -40 10 0 39 -7 65 -16 41 -14 50 -14
57 -3 14 22 5 34 -27 35 -16 0 -46 8 -68 17 -45 20 -53 21 -61 7z"/>
<path d="M4630 3721 c0 -5 11 -31 25 -58 l25 -48 -6 40 c-9 62 -14 75 -30 75
-8 0 -14 -4 -14 -9z"/>
<path d="M2226 3677 c-17 -25 -12 -61 7 -54 17 5 31 57 19 69 -7 7 -15 2 -26
-15z"/>
<path d="M4930 3503 c0 -6 8 -17 18 -24 16 -13 16 -13 2 6 -8 11 -16 22 -17
24 -2 2 -3 0 -3 -6z"/>
<path d="M4740 3483 c0 -3 18 -38 40 -78 30 -54 55 -84 102 -121 123 -97 157
-114 177 -90 14 17 19 12 -98 97 -46 33 -114 92 -152 129 -38 38 -69 67 -69
63z"/>
<path d="M3267 3354 c-21 -22 -3 -128 40 -232 23 -54 28 -61 40 -49 12 12 11
26 -6 98 -11 46 -24 106 -28 134 -8 47 -27 67 -46 49z"/>
<path d="M2557 3122 c-46 -50 -44 -107 8 -190 l33 -53 31 27 c17 14 31 29 31
33 0 5 -11 24 -25 44 -13 20 -29 55 -35 77 -6 23 -18 44 -26 47 -11 4 -12 9
-3 19 17 20 5 17 -14 -4z"/>
<path d="M2427 2833 c-2 -5 -10 -29 -17 -55 -8 -31 -21 -53 -38 -64 -24 -16
-28 -16 -56 1 -71 41 -126 41 -126 1 0 -13 -6 -28 -12 -33 -12 -9 -99 -44
-141 -57 -16 -5 -17 -8 -2 -36 17 -33 14 -33 94 -5 29 10 42 8 90 -11 116 -46
109 -48 184 66 37 56 67 112 67 125 0 13 5 27 11 30 7 5 4 14 -7 26 -18 19
-40 25 -47 12z"/>
<path d="M385 2753 c-16 -8 -42 -27 -57 -41 -28 -26 -25 -26 -149 -6 -31 5
-39 2 -58 -22 -18 -22 -21 -37 -17 -83 2 -35 9 -57 17 -59 8 -2 21 -6 29 -10
26 -10 63 -9 161 3 54 6 123 10 155 9 306 -17 330 -14 320 45 -3 20 -10 37
-16 39 -6 2 -19 21 -30 42 -24 47 -44 54 -126 45 -39 -4 -64 -3 -64 3 0 18
-54 45 -95 48 -22 2 -53 -4 -70 -13z"/>
<path d="M1420 2385 c0 -7 30 -13 34 -7 3 4 -4 9 -15 9 -10 1 -19 0 -19 -2z"/>
<path d="M1475 2380 c3 -5 10 -10 16 -10 5 0 9 5 9 10 0 6 -7 10 -16 10 -8 0
-12 -4 -9 -10z"/>
<path d="M1510 2380 c0 -5 6 -10 14 -10 8 0 18 5 21 10 3 6 -3 10 -14 10 -12
0 -21 -4 -21 -10z"/>
<path d="M2090 2250 c-19 -11 -30 -19 -25 -19 6 0 26 8 45 19 19 11 31 19 25
19 -5 0 -26 -8 -45 -19z"/>
<path d="M1910 2230 c-9 -6 -10 -10 -3 -10 6 0 15 5 18 10 8 12 4 12 -15 0z"/>
<path d="M1763 2193 c9 -2 25 -2 35 0 9 3 1 5 -18 5 -19 0 -27 -2 -17 -5z"/>
<path d="M2218 2193 c7 -3 16 -2 19 1 4 3 -2 6 -13 5 -11 0 -14 -3 -6 -6z"/>
<path d="M2663 2193 c9 -2 23 -2 30 0 6 3 -1 5 -18 5 -16 0 -22 -2 -12 -5z"/>
<path d="M2898 2193 c6 -2 18 -2 25 0 6 3 1 5 -13 5 -14 0 -19 -2 -12 -5z"/>
<path d="M1878 2153 c7 -3 16 -2 19 1 4 3 -2 6 -13 5 -11 0 -14 -3 -6 -6z"/>
<path d="M2068 2153 c84 -2 219 -2 300 0 81 1 12 3 -153 3 -165 0 -231 -2
-147 -3z"/>
<path d="M1600 2100 c-8 -5 -10 -10 -5 -10 6 0 17 5 25 10 8 5 11 10 5 10 -5
0 -17 -5 -25 -10z"/>
<path d="M1710 2090 c-8 -5 -10 -10 -5 -10 6 0 17 5 25 10 8 5 11 10 5 10 -5
0 -17 -5 -25 -10z"/>
<path d="M1670 2070 c-9 -6 -10 -10 -3 -10 6 0 15 5 18 10 8 12 4 12 -15 0z"/>
<path d="M1620 2050 c-8 -5 -10 -10 -5 -10 6 0 17 5 25 10 8 5 11 10 5 10 -5
0 -17 -5 -25 -10z"/>
<path d="M1563 2030 c-34 -14 -28 -21 7 -9 17 6 30 13 30 15 0 6 -12 4 -37 -6z"/>
<path d="M1310 1977 l-95 -42 53 -3 c30 -2 50 -7 47 -13 -7 -11 16 -2 105 40
37 17 52 28 35 24 -16 -3 -48 -16 -70 -28 -39 -21 -85 -23 -85 -4 0 5 14 7 32
4 26 -5 29 -4 19 8 -9 12 -6 17 19 27 17 7 33 17 36 21 7 12 10 13 -96 -34z"/>
<path d="M1260 1895 c-14 -8 -20 -14 -15 -14 6 0 21 6 35 14 14 8 21 14 15 14
-5 0 -21 -6 -35 -14z"/>
<path d="M1152 1876 c2 -13 19 -25 53 -37 59 -21 98 -24 93 -7 -5 14 -107 50
-120 42 -6 -4 -14 0 -20 7 -7 11 -8 10 -6 -5z"/>
</g>
</svg>
